<svg id="Layer_1" data-name="Layer 1" xmlns="http://www.w3.org/2000/svg" viewBox="0 0 329 329"><defs><style>.cls-1{fill:#f6f6f6;}.cls-2{fill:#dadada;}</style></defs><rect class="cls-1" width="329" height="329"/><path class="cls-2" d="M323.56,260.49l.37.06Z" transform="translate(-133.14 -255.44)"/><path class="cls-2" d="M335,480.89c11.41-18.14,22.62-35.51,33.28-53.22A54.63,54.63,0,0,0,374.66,411c.71-3.34.07-8.92-2.13-10.53-6.39-4.67-5-10.72-5.2-16.79-.44-12.77.24-25.77-2-38.23a44.5,44.5,0,0,0-11.5-22c-18.95-19.22-41.51-32.56-68.87-36.25-8.63-1.17-9.85-.32-7.66,7.68,1.69,6.21-.08,8.49-5.85,10.63-29.56,11-41.77,28.79-41.88,60.1,0,5.46-.17,10.95.26,16.39.54,6.73.61,12-5.46,17.77-7.17,6.79-3.72,16.65.76,24.34,8.24,14.13,17.38,27.72,25.94,41.67,2.26,3.69,6.16,8.6,5.19,11.64-2.78,8.75-3.93,19.69-14.52,23.27-14.66,4.95-29.63,9-44.52,13.26-8.47,2.41-17,4.63-25.66,6.92a161.49,161.49,0,0,0,252.2-.13c-19.38-5-38.12-9.93-56.89-14.72C352,502.22,341,493.81,335,480.89Z" transform="translate(-133.14 -255.44)"/><path class="cls-2" d="M323.93,260.55l2.91.5C325.87,260.87,324.9,260.71,323.93,260.55Z" transform="translate(-133.14 -255.44)"/></svg>